<mxfile host="app.diagrams.net" modified="2023-04-22T20:18:28.093Z" agent="Mozilla/5.0 (Windows NT 10.0; Win64; x64) AppleWebKit/537.36 (KHTML, like Gecko) Chrome/112.0.0.0 Safari/537.36" etag="KjacQdk6cCwjwyIk5AjL" version="21.2.1" type="device">
  <diagram name="Page-1" id="e7HWw2p61hRD8ZRaRcSk">
    <mxGraphModel dx="1132" dy="825" grid="1" gridSize="10" guides="1" tooltips="1" connect="1" arrows="1" fold="1" page="1" pageScale="1" pageWidth="850" pageHeight="1100" math="0" shadow="0">
      <root>
        <mxCell id="0" />
        <mxCell id="1" parent="0" />
        <mxCell id="VUEI4edv4Q-Xk3UTERb6-3" value="User" style="swimlane;fontStyle=0;childLayout=stackLayout;horizontal=1;startSize=30;horizontalStack=0;resizeParent=1;resizeParentMax=0;resizeLast=0;collapsible=1;marginBottom=0;whiteSpace=wrap;html=1;" vertex="1" parent="1">
          <mxGeometry x="20" y="150" width="140" height="210" as="geometry" />
        </mxCell>
        <mxCell id="VUEI4edv4Q-Xk3UTERb6-4" value="id" style="text;strokeColor=none;fillColor=none;align=left;verticalAlign=middle;spacingLeft=4;spacingRight=4;overflow=hidden;points=[[0,0.5],[1,0.5]];portConstraint=eastwest;rotatable=0;whiteSpace=wrap;html=1;" vertex="1" parent="VUEI4edv4Q-Xk3UTERb6-3">
          <mxGeometry y="30" width="140" height="30" as="geometry" />
        </mxCell>
        <mxCell id="VUEI4edv4Q-Xk3UTERb6-5" value="role" style="text;strokeColor=none;fillColor=none;align=left;verticalAlign=middle;spacingLeft=4;spacingRight=4;overflow=hidden;points=[[0,0.5],[1,0.5]];portConstraint=eastwest;rotatable=0;whiteSpace=wrap;html=1;" vertex="1" parent="VUEI4edv4Q-Xk3UTERb6-3">
          <mxGeometry y="60" width="140" height="30" as="geometry" />
        </mxCell>
        <mxCell id="VUEI4edv4Q-Xk3UTERb6-6" value="name" style="text;strokeColor=none;fillColor=none;align=left;verticalAlign=middle;spacingLeft=4;spacingRight=4;overflow=hidden;points=[[0,0.5],[1,0.5]];portConstraint=eastwest;rotatable=0;whiteSpace=wrap;html=1;" vertex="1" parent="VUEI4edv4Q-Xk3UTERb6-3">
          <mxGeometry y="90" width="140" height="30" as="geometry" />
        </mxCell>
        <mxCell id="VUEI4edv4Q-Xk3UTERb6-7" value="email" style="text;strokeColor=none;fillColor=none;align=left;verticalAlign=middle;spacingLeft=4;spacingRight=4;overflow=hidden;points=[[0,0.5],[1,0.5]];portConstraint=eastwest;rotatable=0;whiteSpace=wrap;html=1;" vertex="1" parent="VUEI4edv4Q-Xk3UTERb6-3">
          <mxGeometry y="120" width="140" height="30" as="geometry" />
        </mxCell>
        <mxCell id="VUEI4edv4Q-Xk3UTERb6-8" value="password" style="text;strokeColor=none;fillColor=none;align=left;verticalAlign=middle;spacingLeft=4;spacingRight=4;overflow=hidden;points=[[0,0.5],[1,0.5]];portConstraint=eastwest;rotatable=0;whiteSpace=wrap;html=1;" vertex="1" parent="VUEI4edv4Q-Xk3UTERb6-3">
          <mxGeometry y="150" width="140" height="30" as="geometry" />
        </mxCell>
        <mxCell id="VUEI4edv4Q-Xk3UTERb6-27" value="*photo?" style="text;strokeColor=none;fillColor=none;align=left;verticalAlign=middle;spacingLeft=4;spacingRight=4;overflow=hidden;points=[[0,0.5],[1,0.5]];portConstraint=eastwest;rotatable=0;whiteSpace=wrap;html=1;" vertex="1" parent="VUEI4edv4Q-Xk3UTERb6-3">
          <mxGeometry y="180" width="140" height="30" as="geometry" />
        </mxCell>
        <mxCell id="VUEI4edv4Q-Xk3UTERb6-10" value="Schedule store" style="swimlane;fontStyle=0;childLayout=stackLayout;horizontal=1;startSize=30;horizontalStack=0;resizeParent=1;resizeParentMax=0;resizeLast=0;collapsible=1;marginBottom=0;whiteSpace=wrap;html=1;" vertex="1" parent="1">
          <mxGeometry x="240" y="150" width="140" height="90" as="geometry" />
        </mxCell>
        <mxCell id="VUEI4edv4Q-Xk3UTERb6-11" value="id" style="text;strokeColor=none;fillColor=none;align=left;verticalAlign=middle;spacingLeft=4;spacingRight=4;overflow=hidden;points=[[0,0.5],[1,0.5]];portConstraint=eastwest;rotatable=0;whiteSpace=wrap;html=1;" vertex="1" parent="VUEI4edv4Q-Xk3UTERb6-10">
          <mxGeometry y="30" width="140" height="30" as="geometry" />
        </mxCell>
        <mxCell id="VUEI4edv4Q-Xk3UTERb6-12" value="user_id" style="text;strokeColor=none;fillColor=none;align=left;verticalAlign=middle;spacingLeft=4;spacingRight=4;overflow=hidden;points=[[0,0.5],[1,0.5]];portConstraint=eastwest;rotatable=0;whiteSpace=wrap;html=1;" vertex="1" parent="VUEI4edv4Q-Xk3UTERb6-10">
          <mxGeometry y="60" width="140" height="30" as="geometry" />
        </mxCell>
        <mxCell id="VUEI4edv4Q-Xk3UTERb6-14" value="Store_connector" style="swimlane;fontStyle=0;childLayout=stackLayout;horizontal=1;startSize=30;horizontalStack=0;resizeParent=1;resizeParentMax=0;resizeLast=0;collapsible=1;marginBottom=0;whiteSpace=wrap;html=1;" vertex="1" parent="1">
          <mxGeometry x="460" y="150" width="140" height="180" as="geometry" />
        </mxCell>
        <mxCell id="VUEI4edv4Q-Xk3UTERb6-15" value="id" style="text;strokeColor=none;fillColor=none;align=left;verticalAlign=middle;spacingLeft=4;spacingRight=4;overflow=hidden;points=[[0,0.5],[1,0.5]];portConstraint=eastwest;rotatable=0;whiteSpace=wrap;html=1;" vertex="1" parent="VUEI4edv4Q-Xk3UTERb6-14">
          <mxGeometry y="30" width="140" height="30" as="geometry" />
        </mxCell>
        <mxCell id="VUEI4edv4Q-Xk3UTERb6-16" value="store_id" style="text;strokeColor=none;fillColor=none;align=left;verticalAlign=middle;spacingLeft=4;spacingRight=4;overflow=hidden;points=[[0,0.5],[1,0.5]];portConstraint=eastwest;rotatable=0;whiteSpace=wrap;html=1;" vertex="1" parent="VUEI4edv4Q-Xk3UTERb6-14">
          <mxGeometry y="60" width="140" height="30" as="geometry" />
        </mxCell>
        <mxCell id="VUEI4edv4Q-Xk3UTERb6-17" value="schedule_id" style="text;strokeColor=none;fillColor=none;align=left;verticalAlign=middle;spacingLeft=4;spacingRight=4;overflow=hidden;points=[[0,0.5],[1,0.5]];portConstraint=eastwest;rotatable=0;whiteSpace=wrap;html=1;" vertex="1" parent="VUEI4edv4Q-Xk3UTERb6-14">
          <mxGeometry y="90" width="140" height="30" as="geometry" />
        </mxCell>
        <mxCell id="VUEI4edv4Q-Xk3UTERb6-20" value="schedule_name" style="text;strokeColor=none;fillColor=none;align=left;verticalAlign=middle;spacingLeft=4;spacingRight=4;overflow=hidden;points=[[0,0.5],[1,0.5]];portConstraint=eastwest;rotatable=0;whiteSpace=wrap;html=1;" vertex="1" parent="VUEI4edv4Q-Xk3UTERb6-14">
          <mxGeometry y="120" width="140" height="30" as="geometry" />
        </mxCell>
        <mxCell id="VUEI4edv4Q-Xk3UTERb6-26" value="Share_code" style="text;strokeColor=none;fillColor=none;align=left;verticalAlign=middle;spacingLeft=4;spacingRight=4;overflow=hidden;points=[[0,0.5],[1,0.5]];portConstraint=eastwest;rotatable=0;whiteSpace=wrap;html=1;" vertex="1" parent="VUEI4edv4Q-Xk3UTERb6-14">
          <mxGeometry y="150" width="140" height="30" as="geometry" />
        </mxCell>
        <mxCell id="VUEI4edv4Q-Xk3UTERb6-18" value="" style="edgeStyle=entityRelationEdgeStyle;fontSize=12;html=1;endArrow=ERmandOne;startArrow=ERmandOne;rounded=0;exitX=1;exitY=0.5;exitDx=0;exitDy=0;entryX=0;entryY=0.5;entryDx=0;entryDy=0;" edge="1" parent="1" source="VUEI4edv4Q-Xk3UTERb6-4" target="VUEI4edv4Q-Xk3UTERb6-12">
          <mxGeometry width="100" height="100" relative="1" as="geometry">
            <mxPoint x="240" y="350" as="sourcePoint" />
            <mxPoint x="340" y="250" as="targetPoint" />
          </mxGeometry>
        </mxCell>
        <mxCell id="VUEI4edv4Q-Xk3UTERb6-19" value="" style="edgeStyle=entityRelationEdgeStyle;fontSize=12;html=1;endArrow=ERoneToMany;rounded=0;entryX=0;entryY=0.5;entryDx=0;entryDy=0;exitX=0.998;exitY=0.178;exitDx=0;exitDy=0;exitPerimeter=0;" edge="1" parent="1" source="VUEI4edv4Q-Xk3UTERb6-11" target="VUEI4edv4Q-Xk3UTERb6-16">
          <mxGeometry width="100" height="100" relative="1" as="geometry">
            <mxPoint x="380" y="160" as="sourcePoint" />
            <mxPoint x="330" y="240" as="targetPoint" />
          </mxGeometry>
        </mxCell>
        <mxCell id="VUEI4edv4Q-Xk3UTERb6-33" value="Cell" style="swimlane;fontStyle=0;childLayout=stackLayout;horizontal=1;startSize=26;horizontalStack=0;resizeParent=1;resizeParentMax=0;resizeLast=0;collapsible=1;marginBottom=0;align=center;fontSize=14;" vertex="1" parent="1">
          <mxGeometry x="680" y="200" width="160" height="266" as="geometry" />
        </mxCell>
        <mxCell id="VUEI4edv4Q-Xk3UTERb6-34" value="id" style="text;strokeColor=none;fillColor=none;spacingLeft=4;spacingRight=4;overflow=hidden;rotatable=0;points=[[0,0.5],[1,0.5]];portConstraint=eastwest;fontSize=12;whiteSpace=wrap;html=1;" vertex="1" parent="VUEI4edv4Q-Xk3UTERb6-33">
          <mxGeometry y="26" width="160" height="30" as="geometry" />
        </mxCell>
        <mxCell id="VUEI4edv4Q-Xk3UTERb6-35" value="teacher" style="text;strokeColor=none;fillColor=none;spacingLeft=4;spacingRight=4;overflow=hidden;rotatable=0;points=[[0,0.5],[1,0.5]];portConstraint=eastwest;fontSize=12;whiteSpace=wrap;html=1;" vertex="1" parent="VUEI4edv4Q-Xk3UTERb6-33">
          <mxGeometry y="56" width="160" height="30" as="geometry" />
        </mxCell>
        <mxCell id="VUEI4edv4Q-Xk3UTERb6-36" value="subject" style="text;strokeColor=none;fillColor=none;spacingLeft=4;spacingRight=4;overflow=hidden;rotatable=0;points=[[0,0.5],[1,0.5]];portConstraint=eastwest;fontSize=12;whiteSpace=wrap;html=1;" vertex="1" parent="VUEI4edv4Q-Xk3UTERb6-33">
          <mxGeometry y="86" width="160" height="30" as="geometry" />
        </mxCell>
        <mxCell id="VUEI4edv4Q-Xk3UTERb6-37" value="subject_type" style="text;strokeColor=none;fillColor=none;spacingLeft=4;spacingRight=4;overflow=hidden;rotatable=0;points=[[0,0.5],[1,0.5]];portConstraint=eastwest;fontSize=12;whiteSpace=wrap;html=1;" vertex="1" parent="VUEI4edv4Q-Xk3UTERb6-33">
          <mxGeometry y="116" width="160" height="30" as="geometry" />
        </mxCell>
        <mxCell id="VUEI4edv4Q-Xk3UTERb6-38" value="chamber (audience)" style="text;strokeColor=none;fillColor=none;spacingLeft=4;spacingRight=4;overflow=hidden;rotatable=0;points=[[0,0.5],[1,0.5]];portConstraint=eastwest;fontSize=12;whiteSpace=wrap;html=1;" vertex="1" parent="VUEI4edv4Q-Xk3UTERb6-33">
          <mxGeometry y="146" width="160" height="30" as="geometry" />
        </mxCell>
        <mxCell id="VUEI4edv4Q-Xk3UTERb6-39" value="higher-lower_id" style="text;strokeColor=none;fillColor=none;spacingLeft=4;spacingRight=4;overflow=hidden;rotatable=0;points=[[0,0.5],[1,0.5]];portConstraint=eastwest;fontSize=12;whiteSpace=wrap;html=1;" vertex="1" parent="VUEI4edv4Q-Xk3UTERb6-33">
          <mxGeometry y="176" width="160" height="30" as="geometry" />
        </mxCell>
        <mxCell id="VUEI4edv4Q-Xk3UTERb6-40" value="day_id" style="text;strokeColor=none;fillColor=none;spacingLeft=4;spacingRight=4;overflow=hidden;rotatable=0;points=[[0,0.5],[1,0.5]];portConstraint=eastwest;fontSize=12;whiteSpace=wrap;html=1;" vertex="1" parent="VUEI4edv4Q-Xk3UTERb6-33">
          <mxGeometry y="206" width="160" height="30" as="geometry" />
        </mxCell>
        <mxCell id="VUEI4edv4Q-Xk3UTERb6-41" value="time_id" style="text;strokeColor=none;fillColor=none;spacingLeft=4;spacingRight=4;overflow=hidden;rotatable=0;points=[[0,0.5],[1,0.5]];portConstraint=eastwest;fontSize=12;whiteSpace=wrap;html=1;" vertex="1" parent="VUEI4edv4Q-Xk3UTERb6-33">
          <mxGeometry y="236" width="160" height="30" as="geometry" />
        </mxCell>
        <mxCell id="VUEI4edv4Q-Xk3UTERb6-42" value="higher-lower" style="swimlane;fontStyle=0;childLayout=stackLayout;horizontal=1;startSize=26;horizontalStack=0;resizeParent=1;resizeParentMax=0;resizeLast=0;collapsible=1;marginBottom=0;align=center;fontSize=14;" vertex="1" parent="1">
          <mxGeometry x="200" y="507" width="160" height="86" as="geometry" />
        </mxCell>
        <mxCell id="VUEI4edv4Q-Xk3UTERb6-43" value="id" style="text;strokeColor=none;fillColor=none;spacingLeft=4;spacingRight=4;overflow=hidden;rotatable=0;points=[[0,0.5],[1,0.5]];portConstraint=eastwest;fontSize=12;whiteSpace=wrap;html=1;" vertex="1" parent="VUEI4edv4Q-Xk3UTERb6-42">
          <mxGeometry y="26" width="160" height="30" as="geometry" />
        </mxCell>
        <mxCell id="VUEI4edv4Q-Xk3UTERb6-44" value="value" style="text;strokeColor=none;fillColor=none;spacingLeft=4;spacingRight=4;overflow=hidden;rotatable=0;points=[[0,0.5],[1,0.5]];portConstraint=eastwest;fontSize=12;whiteSpace=wrap;html=1;" vertex="1" parent="VUEI4edv4Q-Xk3UTERb6-42">
          <mxGeometry y="56" width="160" height="30" as="geometry" />
        </mxCell>
        <mxCell id="VUEI4edv4Q-Xk3UTERb6-46" value="" style="edgeStyle=entityRelationEdgeStyle;fontSize=12;html=1;endArrow=ERoneToMany;rounded=0;entryX=0;entryY=0.5;entryDx=0;entryDy=0;exitX=0.5;exitY=0;exitDx=0;exitDy=0;" edge="1" parent="1" source="VUEI4edv4Q-Xk3UTERb6-42" target="VUEI4edv4Q-Xk3UTERb6-39">
          <mxGeometry width="100" height="100" relative="1" as="geometry">
            <mxPoint x="400" y="430" as="sourcePoint" />
            <mxPoint x="500" y="330" as="targetPoint" />
          </mxGeometry>
        </mxCell>
        <mxCell id="VUEI4edv4Q-Xk3UTERb6-47" value="" style="edgeStyle=entityRelationEdgeStyle;fontSize=12;html=1;endArrow=ERmandOne;startArrow=ERmandOne;rounded=0;exitX=1;exitY=0.5;exitDx=0;exitDy=0;entryX=0;entryY=0.5;entryDx=0;entryDy=0;" edge="1" parent="1" source="VUEI4edv4Q-Xk3UTERb6-17" target="VUEI4edv4Q-Xk3UTERb6-34">
          <mxGeometry width="100" height="100" relative="1" as="geometry">
            <mxPoint x="170" y="205" as="sourcePoint" />
            <mxPoint x="250" y="235" as="targetPoint" />
          </mxGeometry>
        </mxCell>
        <mxCell id="VUEI4edv4Q-Xk3UTERb6-48" value="time" style="swimlane;fontStyle=0;childLayout=stackLayout;horizontal=1;startSize=26;horizontalStack=0;resizeParent=1;resizeParentMax=0;resizeLast=0;collapsible=1;marginBottom=0;align=center;fontSize=14;" vertex="1" parent="1">
          <mxGeometry x="680" y="576" width="160" height="86" as="geometry" />
        </mxCell>
        <mxCell id="VUEI4edv4Q-Xk3UTERb6-49" value="id" style="text;strokeColor=none;fillColor=none;spacingLeft=4;spacingRight=4;overflow=hidden;rotatable=0;points=[[0,0.5],[1,0.5]];portConstraint=eastwest;fontSize=12;whiteSpace=wrap;html=1;" vertex="1" parent="VUEI4edv4Q-Xk3UTERb6-48">
          <mxGeometry y="26" width="160" height="30" as="geometry" />
        </mxCell>
        <mxCell id="VUEI4edv4Q-Xk3UTERb6-50" value="value" style="text;strokeColor=none;fillColor=none;spacingLeft=4;spacingRight=4;overflow=hidden;rotatable=0;points=[[0,0.5],[1,0.5]];portConstraint=eastwest;fontSize=12;whiteSpace=wrap;html=1;" vertex="1" parent="VUEI4edv4Q-Xk3UTERb6-48">
          <mxGeometry y="56" width="160" height="30" as="geometry" />
        </mxCell>
        <mxCell id="VUEI4edv4Q-Xk3UTERb6-51" value="day" style="swimlane;fontStyle=0;childLayout=stackLayout;horizontal=1;startSize=26;horizontalStack=0;resizeParent=1;resizeParentMax=0;resizeLast=0;collapsible=1;marginBottom=0;align=center;fontSize=14;" vertex="1" parent="1">
          <mxGeometry x="500" y="500" width="160" height="86" as="geometry" />
        </mxCell>
        <mxCell id="VUEI4edv4Q-Xk3UTERb6-52" value="id" style="text;strokeColor=none;fillColor=none;spacingLeft=4;spacingRight=4;overflow=hidden;rotatable=0;points=[[0,0.5],[1,0.5]];portConstraint=eastwest;fontSize=12;whiteSpace=wrap;html=1;" vertex="1" parent="VUEI4edv4Q-Xk3UTERb6-51">
          <mxGeometry y="26" width="160" height="30" as="geometry" />
        </mxCell>
        <mxCell id="VUEI4edv4Q-Xk3UTERb6-53" value="value" style="text;strokeColor=none;fillColor=none;spacingLeft=4;spacingRight=4;overflow=hidden;rotatable=0;points=[[0,0.5],[1,0.5]];portConstraint=eastwest;fontSize=12;whiteSpace=wrap;html=1;" vertex="1" parent="VUEI4edv4Q-Xk3UTERb6-51">
          <mxGeometry y="56" width="160" height="30" as="geometry" />
        </mxCell>
        <mxCell id="VUEI4edv4Q-Xk3UTERb6-54" value="" style="fontSize=12;html=1;endArrow=ERoneToMany;rounded=0;entryX=0.457;entryY=0.996;entryDx=0;entryDy=0;exitX=0.5;exitY=0;exitDx=0;exitDy=0;entryPerimeter=0;" edge="1" parent="1" source="VUEI4edv4Q-Xk3UTERb6-48" target="VUEI4edv4Q-Xk3UTERb6-41">
          <mxGeometry width="100" height="100" relative="1" as="geometry">
            <mxPoint x="530" y="551" as="sourcePoint" />
            <mxPoint x="690" y="401" as="targetPoint" />
          </mxGeometry>
        </mxCell>
        <mxCell id="VUEI4edv4Q-Xk3UTERb6-55" value="" style="fontSize=12;html=1;endArrow=ERoneToMany;rounded=0;entryX=0;entryY=0.5;entryDx=0;entryDy=0;exitX=0.5;exitY=0;exitDx=0;exitDy=0;" edge="1" parent="1" source="VUEI4edv4Q-Xk3UTERb6-51" target="VUEI4edv4Q-Xk3UTERb6-40">
          <mxGeometry width="100" height="100" relative="1" as="geometry">
            <mxPoint x="770" y="510" as="sourcePoint" />
            <mxPoint x="763" y="476" as="targetPoint" />
          </mxGeometry>
        </mxCell>
        <mxCell id="VUEI4edv4Q-Xk3UTERb6-56" value="" style="fontSize=12;html=1;endArrow=ERmany;startArrow=ERmany;rounded=0;exitX=1;exitY=0.25;exitDx=0;exitDy=0;entryX=0.002;entryY=0.12;entryDx=0;entryDy=0;entryPerimeter=0;" edge="1" parent="1" source="VUEI4edv4Q-Xk3UTERb6-42" target="VUEI4edv4Q-Xk3UTERb6-51">
          <mxGeometry width="100" height="100" relative="1" as="geometry">
            <mxPoint x="400" y="600" as="sourcePoint" />
            <mxPoint x="500" y="500" as="targetPoint" />
          </mxGeometry>
        </mxCell>
        <mxCell id="VUEI4edv4Q-Xk3UTERb6-57" value="" style="fontSize=12;html=1;endArrow=ERmany;startArrow=ERmany;rounded=0;exitX=0.999;exitY=0.12;exitDx=0;exitDy=0;exitPerimeter=0;" edge="1" parent="1" source="VUEI4edv4Q-Xk3UTERb6-51">
          <mxGeometry width="100" height="100" relative="1" as="geometry">
            <mxPoint x="400" y="600" as="sourcePoint" />
            <mxPoint x="710" y="570" as="targetPoint" />
          </mxGeometry>
        </mxCell>
        <mxCell id="VUEI4edv4Q-Xk3UTERb6-58" value="" style="edgeStyle=entityRelationEdgeStyle;fontSize=12;html=1;endArrow=ERmany;startArrow=ERmany;rounded=0;exitX=1;exitY=0.5;exitDx=0;exitDy=0;entryX=0;entryY=0.5;entryDx=0;entryDy=0;" edge="1" parent="1" source="VUEI4edv4Q-Xk3UTERb6-44" target="VUEI4edv4Q-Xk3UTERb6-50">
          <mxGeometry width="100" height="100" relative="1" as="geometry">
            <mxPoint x="400" y="600" as="sourcePoint" />
            <mxPoint x="500" y="500" as="targetPoint" />
          </mxGeometry>
        </mxCell>
      </root>
    </mxGraphModel>
  </diagram>
</mxfile>
